<?xml version="1.0" standalone="no"?>
<!DOCTYPE svg PUBLIC "-//W3C//DTD SVG 20010904//EN"
 "http://www.w3.org/TR/2001/REC-SVG-20010904/DTD/svg10.dtd">
<svg version="1.0" xmlns="http://www.w3.org/2000/svg"
 width="594.000000pt" height="594.000000pt" viewBox="0 0 594.000000 594.000000"
 preserveAspectRatio="xMidYMid meet">
<metadata>
Created by potrace 1.11, written by Peter Selinger 2001-2013
</metadata>
<g transform="translate(0.000000,594.000000) scale(0.100000,-0.100000)"
fill="#000000" stroke="none">
<path d="M1277 5586 c-7 -8 -20 -29 -27 -48 -20 -50 -160 -389 -175 -423 -7
-16 -57 -136 -110 -265 -130 -313 -174 -419 -190 -455 -7 -16 -23 -55 -35 -85
-11 -30 -27 -70 -35 -87 -29 -65 -44 -101 -115 -273 -39 -96 -75 -184 -80
-195 -5 -11 -61 -146 -125 -300 -64 -154 -120 -289 -125 -300 -35 -75 -250
-603 -250 -614 0 -8 6 -11 17 -7 9 4 32 9 52 12 20 3 47 7 61 10 14 2 48 7 75
10 28 3 61 7 75 10 48 8 236 18 370 18 136 0 377 -11 389 -18 3 -2 37 -7 76
-10 217 -20 556 -111 818 -220 267 -111 566 -300 769 -485 l57 -52 -292 -196
c-161 -108 -413 -278 -562 -378 -148 -100 -403 -271 -565 -379 -162 -109 -303
-207 -312 -217 -24 -28 -18 -140 9 -194 29 -55 59 -80 120 -100 61 -20 29 -34
311 142 119 75 228 142 242 150 14 8 52 31 85 53 33 21 103 65 155 96 52 32
106 66 120 75 74 51 882 549 890 549 9 0 195 -115 1325 -819 458 -286 431
-274 515 -231 68 35 101 95 105 192 3 52 0 72 -13 87 -9 11 -136 99 -282 197
-146 97 -402 270 -570 382 -168 113 -429 289 -580 390 -151 101 -280 189 -287
194 -13 10 26 48 154 151 432 344 940 549 1541 621 201 25 630 25 762 2 14 -3
52 -7 85 -10 64 -6 94 -11 164 -27 24 -5 45 -8 47 -7 1 2 -13 39 -31 83 -92
217 -215 515 -215 519 0 3 -11 29 -24 58 -14 30 -34 78 -46 108 -21 53 -28 71
-63 150 -8 19 -42 100 -75 180 -113 273 -384 925 -397 955 -8 17 -90 215 -184
440 -93 226 -185 446 -203 490 l-34 80 -49 -2 c-69 -2 -214 -12 -250 -18 -16
-2 -66 -9 -110 -15 -342 -48 -690 -186 -937 -372 -106 -81 -246 -222 -299
-303 -24 -35 -46 -62 -51 -59 -4 3 -22 26 -40 52 -68 99 -195 226 -311 312
-45 33 -87 64 -93 69 -24 20 -223 122 -294 151 -168 70 -364 124 -545 150 -44
6 -91 13 -105 16 -14 2 -74 6 -135 9 -60 3 -120 8 -132 10 -12 3 -28 -1 -36
-9z m468 -436 c243 -39 456 -124 641 -255 91 -65 209 -189 275 -289 l59 -90 0
-1007 0 -1008 -28 -15 c-42 -22 -67 -11 -156 66 -44 38 -92 76 -108 86 -15 9
-28 20 -28 24 0 4 -4 8 -9 8 -5 0 -33 16 -63 36 -89 60 -326 171 -458 214
-291 96 -505 128 -862 128 -186 1 -232 4 -257 16 -38 20 -55 50 -53 97 1 30
97 276 178 457 26 60 42 96 179 427 75 182 144 346 152 365 24 55 29 69 74
175 22 55 47 114 54 130 23 53 121 287 156 373 l33 83 81 -6 c44 -3 107 -10
140 -15z m2742 -152 c169 -408 496 -1185 509 -1212 8 -16 14 -33 14 -37 0 -5
11 -32 24 -61 13 -29 41 -93 61 -143 20 -49 41 -99 46 -110 5 -11 29 -69 54
-130 63 -150 61 -206 -6 -241 -25 -12 -73 -15 -267 -16 -362 -1 -628 -44 -901
-144 -75 -28 -81 -30 -174 -73 -37 -17 -69 -31 -71 -31 -2 0 -43 -23 -92 -51
-105 -60 -231 -150 -294 -210 -63 -59 -101 -74 -140 -54 l-30 16 0 1004 0
1004 31 53 c155 265 433 462 781 554 82 21 250 48 324 52 l59 3 72 -173z"/>
</g>
</svg>
